<svg width="24" height="29" viewBox="0 0 24 29" fill="none" xmlns="http://www.w3.org/2000/svg">
<path d="M12.5007 28.8274H1.29171C0.57811 28.8274 0 28.1319 0 27.2743V2.24244C0 1.38461 0.578201 0.689453 1.29171 0.689453H22.1122C22.8256 0.689453 23.4038 1.38461 23.4038 2.24244V27.2743C23.4038 28.132 22.8255 28.8274 22.1122 28.8274H16.1483V17.9308H19.1904L19.6459 13.6843H16.1483V10.9731C16.1483 9.74359 16.4323 8.90574 17.8987 8.90574L19.7691 8.90476V5.10658C19.4456 5.05483 18.3353 4.9392 17.0436 4.9392C14.347 4.9392 12.5007 6.91822 12.5007 10.5525V13.6843H9.45082V17.9308H12.5007V28.8274Z" fill="white"/>
</svg>
