<svg width="33" height="38" viewBox="0 0 33 38" fill="none" xmlns="http://www.w3.org/2000/svg">
<path fill-rule="evenodd" clip-rule="evenodd" d="M16.4178 4.68945C13.2397 4.68945 12.8412 4.70565 11.5931 4.77412C10.3475 4.84242 9.49687 5.08027 8.75254 5.42808C7.98303 5.78757 7.33045 6.26864 6.67985 7.05077C6.02931 7.83296 5.62918 8.61756 5.33018 9.54272C5.04088 10.4376 4.84305 11.4603 4.78624 12.9578C4.72929 14.4584 4.71582 14.9375 4.71582 18.7585C4.71582 22.5793 4.72929 23.0584 4.78624 24.5591C4.84305 26.0565 5.04088 27.0793 5.33018 27.9741C5.62918 28.8993 6.02931 29.6839 6.67985 30.4661C7.33045 31.2482 7.98303 31.7293 8.75254 32.0888C9.49687 32.4366 10.3475 32.6744 11.5931 32.7427C12.8412 32.8112 13.2397 32.8274 16.4178 32.8274C19.5958 32.8274 19.9943 32.8112 21.2424 32.7427C22.488 32.6744 23.3386 32.4366 24.0829 32.0888C24.8524 31.7293 25.505 31.2482 26.1556 30.4661C26.8062 29.6839 27.2063 28.8993 27.5053 27.9741C27.7946 27.0793 27.9924 26.0565 28.0492 24.5591C28.1062 23.0584 28.1197 22.5793 28.1197 18.7585C28.1197 14.9375 28.1062 14.4584 28.0492 12.9578C27.9924 11.4603 27.7946 10.4376 27.5053 9.54272C27.2063 8.61756 26.8062 7.83296 26.1556 7.05077C25.505 6.26864 24.8524 5.78757 24.0829 5.42808C23.3386 5.08027 22.488 4.84242 21.2424 4.77412C19.9943 4.70565 19.5958 4.68945 16.4178 4.68945ZM16.4173 7.22559C19.5418 7.22559 19.912 7.23994 21.1459 7.30763C22.2868 7.37017 22.9064 7.59937 23.3188 7.79204C23.865 8.04726 24.2548 8.35213 24.6643 8.84448C25.0738 9.33677 25.3273 9.80543 25.5396 10.4621C25.6999 10.9579 25.8905 11.7028 25.9425 13.0745C25.9988 14.5581 26.0108 15.003 26.0108 18.7596C26.0108 22.5162 25.9988 22.9612 25.9425 24.4447C25.8905 25.8164 25.6999 26.5613 25.5396 27.0571C25.3273 27.7138 25.0738 28.1825 24.6643 28.6748C24.2548 29.1671 23.865 29.472 23.3188 29.7272C22.9064 29.9199 22.2868 30.1491 21.1459 30.2116C19.9122 30.2793 19.5421 30.2936 16.4173 30.2936C13.2925 30.2936 12.9225 30.2793 11.6887 30.2116C10.5478 30.1491 9.92819 29.9199 9.51585 29.7272C8.96963 29.472 8.57982 29.1671 8.17035 28.6748C7.76089 28.1825 7.50727 27.7138 7.29499 27.0571C7.13473 26.5613 6.9441 25.8164 6.89207 24.4447C6.83578 22.9612 6.82384 22.5162 6.82384 18.7596C6.82384 15.003 6.83578 14.5581 6.89207 13.0745C6.9441 11.7028 7.13473 10.9579 7.29499 10.4621C7.50727 9.80543 7.76084 9.33677 8.17035 8.84448C8.57982 8.35213 8.96963 8.04726 9.51585 7.79204C9.92819 7.59937 10.5478 7.37017 11.6887 7.30763C12.9226 7.23994 13.2928 7.22559 16.4173 7.22559ZM10.4091 18.7588C10.4091 14.7687 13.0994 11.5342 16.4182 11.5342C19.7369 11.5342 22.4272 14.7687 22.4272 18.7588C22.4272 22.7488 19.7369 25.9834 16.4182 25.9834C13.0994 25.9834 10.4091 22.7488 10.4091 18.7588ZM16.4177 23.4477C14.2634 23.4477 12.5171 21.3481 12.5171 18.758C12.5171 16.168 14.2634 14.0684 16.4177 14.0684C18.572 14.0684 20.3183 16.168 20.3183 18.758C20.3183 21.3481 18.572 23.4477 16.4177 23.4477ZM22.6641 12.9371C23.4397 12.9371 24.0684 12.1813 24.0684 11.2489C24.0684 10.3164 23.4397 9.56055 22.6641 9.56055C21.8887 9.56055 21.2599 10.3164 21.2599 11.2489C21.2599 12.1813 21.8887 12.9371 22.6641 12.9371Z" fill="white"/>
</svg>
