<svg width="33" height="38" viewBox="0 0 33 38" fill="none" xmlns="http://www.w3.org/2000/svg">
<path fill-rule="evenodd" clip-rule="evenodd" d="M7.61422 12.1473H7.5812C5.92994 12.1473 4.85938 10.8484 4.85938 9.20202C4.85938 7.52359 5.96159 6.25195 7.64587 6.25195C9.32878 6.25195 10.3636 7.52039 10.3966 9.19722C10.3966 10.8436 9.32878 12.1473 7.61422 12.1473ZM28.263 31.2627H23.0905V22.4701C23.0905 20.1687 22.2813 18.5976 20.5021 18.5976C19.1412 18.5976 18.3844 19.6578 18.0321 20.6796C17.9158 21.0025 17.9179 21.4372 17.92 21.8852C17.9203 21.946 17.9206 22.0071 17.9206 22.0681V31.2627H12.7962C12.7962 31.2627 12.8623 15.6875 12.7962 14.2718H17.9206V16.9383C18.2234 15.7724 19.8609 14.1084 22.474 14.1084C25.716 14.1084 28.263 16.5524 28.263 21.8151V31.2627ZM10.0118 14.2725H5.45017V31.2634H10.0118V14.2725Z" fill="white"/>
</svg>
