<svg width="32" height="38" viewBox="0 0 32 38" fill="none" xmlns="http://www.w3.org/2000/svg">
<path d="M27.3326 10.5932C26.4726 11.0641 25.5467 11.3825 24.5755 11.5247C25.5673 10.7931 26.3284 9.63295 26.6869 8.25095C25.7583 8.9284 24.7321 9.42125 23.6359 9.68546C22.7622 8.53548 21.5135 7.81738 20.1316 7.81738C17.4817 7.81738 15.3319 10.4679 15.3319 13.7366C15.3319 14.2007 15.3731 14.6512 15.4555 15.0847C11.4649 14.8375 7.92757 12.4833 5.55793 8.89792C5.14444 9.77522 4.90816 10.7931 4.90816 11.877C4.90816 13.9297 5.75574 15.7419 7.04428 16.8038C6.25852 16.775 5.51672 16.5057 4.86833 16.0654V16.1382C4.86833 19.0072 6.52364 21.4003 8.72157 21.9423C8.31908 22.0811 7.8946 22.1506 7.45639 22.1506C7.14731 22.1506 6.84509 22.115 6.55249 22.0456C7.16379 24.3963 8.93587 26.1086 11.0376 26.1543C9.39469 27.7429 7.32314 28.6897 5.07438 28.6897C4.687 28.6897 4.30373 28.6626 3.92871 28.6084C6.05384 30.2851 8.57871 31.2657 11.289 31.2657C20.122 31.2657 24.9505 22.2471 24.9505 14.4242C24.9505 14.1668 24.9464 13.9094 24.9382 13.657C25.8764 12.8221 26.691 11.7805 27.3326 10.5932Z" fill="white"/>
</svg>
