<svg width="33" height="38" viewBox="0 0 33 38" fill="none" xmlns="http://www.w3.org/2000/svg">
<path fill-rule="evenodd" clip-rule="evenodd" d="M27.0266 10.8959C27.728 11.7726 27.9569 13.7635 27.9569 13.7635C27.9569 13.7635 28.1909 16.1021 28.1909 18.4397V20.632C28.1909 22.9705 27.9569 25.3082 27.9569 25.3082C27.9569 25.3082 27.728 27.2991 27.0266 28.1758C26.2247 29.213 25.3356 29.3201 24.833 29.3807C24.7777 29.3874 24.7271 29.3935 24.6818 29.4002C21.4068 29.6927 16.489 29.7017 16.489 29.7017C16.489 29.7017 10.404 29.6331 8.53172 29.411C8.44301 29.3905 8.33548 29.3746 8.2137 29.3566C7.62063 29.2688 6.68977 29.1309 5.95072 28.1758C5.24934 27.2991 5.02115 25.3082 5.02115 25.3082C5.02115 25.3082 4.78711 22.9705 4.78711 20.632V18.4397C4.78711 16.1021 5.02115 13.7635 5.02115 13.7635C5.02115 13.7635 5.24934 11.7726 5.95072 10.8959C6.75439 9.85727 7.64438 9.75126 8.147 9.6914C8.2015 9.68491 8.25144 9.67896 8.29622 9.67243C11.5713 9.37988 16.4839 9.37988 16.4839 9.37988H16.4941C16.4941 9.37988 21.4068 9.37988 24.6818 9.67243C24.7266 9.67897 24.7766 9.68493 24.8311 9.69143C25.3334 9.7513 26.2237 9.85743 27.0266 10.8959ZM14.0717 15.1699L14.0724 23.288L20.3951 19.243L14.0717 15.1699Z" fill="white"/>
</svg>
