<svg width="388" height="359" viewBox="0 0 388 359" fill="none" xmlns="http://www.w3.org/2000/svg">
<path d="M254.69 130.545C270.307 130.545 282.981 143.339 282.981 159.102V269.234C282.981 293.041 273.612 315.874 256.933 332.708C240.255 349.542 217.635 359 194.048 359C170.462 359 147.842 349.542 131.163 332.708C114.485 315.874 105.116 293.041 105.116 269.234V159.102C105.116 143.339 117.774 130.545 133.407 130.545H254.69ZM28.2917 130.545L99.134 130.513C93.3083 137.598 89.801 146.332 89.0945 155.512L88.9328 159.102V269.234C88.9328 287.722 93.6373 305.117 101.866 320.261C90.7906 325.138 78.6859 327.155 66.6449 326.129C54.6038 325.103 43.0054 321.066 32.8968 314.384C22.7882 307.701 14.4875 298.582 8.74421 287.85C3.0009 277.119 -0.00426665 265.113 4.54658e-06 252.916V159.102C0.00429061 151.527 2.9886 144.264 8.29689 138.909C13.6052 133.554 20.8029 130.545 28.3078 130.545H28.2917ZM288.963 130.513L359.708 130.545C375.325 130.545 388 143.339 388 159.102V252.932C388.005 265.124 385.002 277.126 379.262 287.854C373.523 298.582 365.227 307.698 355.124 314.381C345.021 321.064 333.428 325.102 321.392 326.131C309.356 327.16 297.255 325.148 286.182 320.277L287.088 318.612C294.023 305.346 298.243 290.398 299.019 274.553L299.148 269.234V159.102C299.148 148.234 295.316 138.28 288.963 130.513ZM194 0C201.431 -1.58056e-07 208.788 1.47729 215.653 4.34752C222.518 7.21774 228.756 11.4247 234.01 16.7282C239.265 22.0317 243.433 28.3278 246.276 35.2572C249.12 42.1865 250.583 49.6134 250.583 57.1136C250.583 64.6139 249.12 72.0407 246.276 78.9701C243.433 85.8994 239.265 92.1956 234.01 97.4991C228.756 102.803 222.518 107.01 215.653 109.88C208.788 112.75 201.431 114.227 194 114.227C178.993 114.227 164.601 108.21 153.99 97.4991C143.378 86.7882 137.417 72.2611 137.417 57.1136C137.417 41.9662 143.378 27.4391 153.99 16.7282C164.601 6.01732 178.993 3.19209e-07 194 0V0ZM323.382 16.3182C329.751 16.3182 336.058 17.5844 341.942 20.0446C347.826 22.5048 353.173 26.1108 357.677 30.6566C362.18 35.2025 365.753 40.5992 368.19 46.5386C370.627 52.4781 371.882 58.8439 371.882 65.2727C371.882 71.7015 370.627 78.0674 368.19 84.0068C365.753 89.9463 362.18 95.343 357.677 99.8888C353.173 104.435 347.826 108.041 341.942 110.501C336.058 112.961 329.751 114.227 323.382 114.227C310.519 114.227 298.183 109.07 289.087 99.8888C279.992 90.7081 274.882 78.2563 274.882 65.2727C274.882 52.2892 279.992 39.8374 289.087 30.6566C298.183 21.4759 310.519 16.3182 323.382 16.3182V16.3182ZM64.6182 16.3182C70.9873 16.3182 77.294 17.5844 83.1783 20.0446C89.0626 22.5048 94.4092 26.1108 98.9129 30.6566C103.416 35.2025 106.989 40.5992 109.426 46.5386C111.864 52.4781 113.118 58.8439 113.118 65.2727C113.118 71.7015 111.864 78.0674 109.426 84.0068C106.989 89.9463 103.416 95.343 98.9129 99.8888C94.4092 104.435 89.0626 108.041 83.1783 110.501C77.294 112.961 70.9873 114.227 64.6182 114.227C51.7552 114.227 39.419 109.07 30.3235 99.8888C21.228 90.7081 16.1182 78.2563 16.1182 65.2727C16.1182 52.2892 21.228 39.8374 30.3235 30.6566C39.419 21.4759 51.7552 16.3182 64.6182 16.3182V16.3182Z" fill="url(#paint0_linear_653_279)"/>
<defs>
<linearGradient id="paint0_linear_653_279" x1="194" y1="0" x2="194" y2="359" gradientUnits="userSpaceOnUse">
<stop offset="0.622917" stop-color="#222831"/>
<stop offset="1" stop-opacity="0.06"/>
</linearGradient>
</defs>
</svg>
