<svg width="42" height="39" viewBox="0 0 42 39" fill="none" xmlns="http://www.w3.org/2000/svg">
<path fill-rule="evenodd" clip-rule="evenodd" d="M21 0C9.40227 0 0 8.67472 0 19.375C0 30.0753 9.40227 38.75 21 38.75C32.5977 38.75 42 30.0753 42 19.375C42 8.67472 32.5977 0 21 0ZM28.077 15.3362C28.4248 15.004 28.6172 14.5591 28.6128 14.0972C28.6085 13.6354 28.4077 13.1937 28.0537 12.8671C27.6998 12.5405 27.221 12.3553 26.7204 12.3513C26.2198 12.3472 25.7376 12.5248 25.3775 12.8456L21 16.8844L16.6225 12.8456C16.4463 12.6774 16.2357 12.5432 16.0028 12.4509C15.7699 12.3586 15.5193 12.31 15.2659 12.308C15.0124 12.3059 14.761 12.3505 14.5264 12.4391C14.2917 12.5276 14.0786 12.6584 13.8993 12.8238C13.7201 12.9892 13.5783 13.1858 13.4823 13.4023C13.3863 13.6188 13.338 13.8507 13.3402 14.0846C13.3425 14.3184 13.3951 14.5496 13.4952 14.7645C13.5952 14.9794 13.7407 15.1737 13.923 15.3362L18.3005 19.375L13.923 23.4138C13.7407 23.5763 13.5952 23.7706 13.4952 23.9855C13.3951 24.2004 13.3425 24.4316 13.3402 24.6654C13.338 24.8993 13.3863 25.1312 13.4823 25.3477C13.5783 25.5642 13.7201 25.7608 13.8993 25.9262C14.0786 26.0916 14.2917 26.2224 14.5264 26.3109C14.761 26.3995 15.0124 26.4441 15.2659 26.442C15.5193 26.44 15.7699 26.3914 16.0028 26.2991C16.2357 26.2068 16.4463 26.0726 16.6225 25.9044L21 21.8656L25.3775 25.9044C25.7376 26.2252 26.2198 26.4028 26.7204 26.3987C27.221 26.3947 27.6998 26.2095 28.0537 25.8829C28.4077 25.5563 28.6085 25.1146 28.6128 24.6528C28.6172 24.1909 28.4248 23.746 28.077 23.4138L23.6995 19.375L28.077 15.3362Z" fill="black"/>
</svg>
