<svg width="126" height="111" viewBox="0 0 126 111" fill="none" xmlns="http://www.w3.org/2000/svg">
<path fill-rule="evenodd" clip-rule="evenodd" d="M100.378 0.171387H26.6172V8.29203H0.970703V46.3826C0.970703 61.1038 18.2841 73.2178 35.2739 74.478C40.8513 80.1491 50.6617 84.2684 59.3932 86.0249V95.9808C51.0435 98.4146 36.1287 104.133 35.2739 110.363H92.5758C91.7127 104.133 75.279 98.4067 66.9128 95.9808V86.0249C75.6774 84.2684 85.9277 80.1491 91.5135 74.478C108.495 73.2178 125.045 61.1038 125.045 46.3826V8.29203H100.378V0.171387ZM8.84723 15.5069H26.0196V48.3202C26.0196 54.7947 27.7791 60.9541 30.875 66.4991C18.0268 62.616 8.84723 52.6129 8.84723 40.9085V15.5069ZM76.109 55.5272L63.2941 48.8243L50.4625 55.5272L52.911 41.3496L42.5362 31.3149L56.87 29.2434L63.2941 16.3575L69.7015 29.2434L84.0353 31.3149L73.6605 41.3496L76.109 55.5272ZM95.1571 67.5467C98.2695 61.7496 100.054 55.3382 100.054 48.5565V15.7195H117.268V40.814C117.268 53.0461 108.047 63.4903 95.1571 67.5467Z" fill="#393E46"/>
</svg>
