<svg width="148" height="112" viewBox="0 0 148 112" fill="none" xmlns="http://www.w3.org/2000/svg">
<path d="M81.3043 0.835449H110.536V13.9045H81.3043V0.835449ZM8.22448 33.508H37.4564V46.577H8.22448V33.508ZM8.22448 85.784H37.4564V98.853H8.22448V85.784ZM0.916504 59.646H30.0753V72.715H0.916504V59.646ZM144.935 25.0589L134.601 15.8191L122.127 26.9735C114.22 22.7009 105.158 20.4414 95.9202 20.439C67.7187 20.439 44.7644 40.9638 44.7644 66.1805C44.7644 91.3972 67.7187 111.922 95.9202 111.922C124.122 111.922 147.076 91.3972 147.076 66.1805C147.069 54.7194 142.228 43.6823 133.52 35.2723L144.935 25.0589ZM103.228 72.715H88.6122V39.768H103.228V72.715Z" fill="#393E46"/>
</svg>
