<svg width="100" height="100" viewBox="0 0 100 100" fill="none" xmlns="http://www.w3.org/2000/svg">
<path d="M93.75 75V68.75H87.1844C86.7814 66.7938 86.0047 64.9338 84.8969 63.2719L89.5531 58.6156L85.1344 54.1969L80.4781 58.8531C78.8162 57.7453 76.9562 56.9686 75 56.5656V50H68.75V56.5656C66.7938 56.9686 64.9338 57.7453 63.2719 58.8531L58.6156 54.1969L54.1969 58.6156L58.8531 63.2719C57.7453 64.9338 56.9686 66.7938 56.5656 68.75H50V75H56.5656C56.9686 76.9562 57.7453 78.8162 58.8531 80.4781L54.1969 85.1344L58.6156 89.5531L63.2719 84.8969C64.9338 86.0047 66.7938 86.7814 68.75 87.1844V93.75H75V87.1844C76.9562 86.7814 78.8162 86.0047 80.4781 84.8969L85.1344 89.5531L89.5531 85.1344L84.8969 80.4781C86.0047 78.8162 86.7814 76.9562 87.1844 75H93.75ZM71.875 81.25C70.0208 81.25 68.2082 80.7002 66.6665 79.67C65.1248 78.6399 63.9232 77.1757 63.2136 75.4627C62.5041 73.7496 62.3184 71.8646 62.6801 70.046C63.0419 68.2275 63.9348 66.557 65.2459 65.2459C66.557 63.9348 68.2275 63.0419 70.046 62.6801C71.8646 62.3184 73.7496 62.5041 75.4627 63.2136C77.1757 63.9232 78.6399 65.1248 79.67 66.6665C80.7002 68.2082 81.25 70.0208 81.25 71.875C81.2475 74.3606 80.259 76.7438 78.5014 78.5014C76.7438 80.259 74.3606 81.2475 71.875 81.25Z" fill="url(#paint0_linear_534_282)"/>
<path d="M43.75 83.3344L33.6438 77.9437C29.1417 75.549 25.3768 71.9736 22.7529 67.6011C20.129 63.2287 18.7452 58.2243 18.75 53.125V12.5H81.25V43.75H87.5V12.5C87.4984 10.8429 86.8394 9.25415 85.6676 8.08241C84.4959 6.91067 82.9071 6.25165 81.25 6.25H18.75C17.0929 6.25165 15.5042 6.91067 14.3324 8.08241C13.1607 9.25415 12.5017 10.8429 12.5 12.5V53.125C12.4931 59.3573 14.1835 65.4739 17.39 70.8181C20.5964 76.1624 25.1977 80.5325 30.7 83.4594L43.75 90.4188V83.3344Z" fill="url(#paint1_linear_534_282)"/>
<defs>
<linearGradient id="paint0_linear_534_282" x1="63.5" y1="65.5" x2="85" y2="89.5" gradientUnits="userSpaceOnUse">
<stop stop-color="#00383A"/>
<stop offset="1" stop-color="#00ADB5"/>
</linearGradient>
<linearGradient id="paint1_linear_534_282" x1="12" y1="14.5" x2="50" y2="90.4187" gradientUnits="userSpaceOnUse">
<stop stop-color="#00ADB5"/>
<stop offset="0.834242" stop-color="#033638"/>
</linearGradient>
</defs>
</svg>
