<svg width="100" height="100" viewBox="0 0 100 100" fill="none" xmlns="http://www.w3.org/2000/svg">
<path d="M79 66.4286V61.5714H74.0476C73.7436 60.0512 73.1578 58.6057 72.3222 57.3141L75.8344 53.6956L72.5014 50.2616L68.9892 53.8801C67.7357 53.0192 66.3327 52.4156 64.8571 52.1024V47H60.1429V52.1024C58.6673 52.4156 57.2643 53.0192 56.0108 53.8801L52.4986 50.2616L49.1656 53.6956L52.6778 57.3141C51.8422 58.6057 51.2564 60.0512 50.9524 61.5714H46V66.4286H50.9524C51.2564 67.9488 51.8422 69.3943 52.6778 70.6859L49.1656 74.3044L52.4986 77.7384L56.0108 74.1199C57.2643 74.9808 58.6673 75.5844 60.1429 75.8976V81H64.8571V75.8976C66.3327 75.5844 67.7357 74.9808 68.9892 74.1199L72.5014 77.7384L75.8344 74.3044L72.3222 70.6859C73.1578 69.3943 73.7436 67.9488 74.0476 66.4286H79ZM62.5 71.2857C61.1014 71.2857 59.7342 70.8584 58.5713 70.0579C57.4084 69.2573 56.5021 68.1194 55.9669 66.7881C55.4316 65.4568 55.2916 63.9919 55.5644 62.5786C55.8373 61.1653 56.5108 59.8671 57.4997 58.8482C58.4887 57.8293 59.7487 57.1354 61.1204 56.8543C62.4922 56.5732 63.914 56.7174 65.2061 57.2689C66.4983 57.8203 67.6027 58.7541 68.3797 59.9523C69.1567 61.1504 69.5714 62.559 69.5714 64C69.5696 65.9317 68.8239 67.7837 67.4982 69.1496C66.1724 70.5156 64.3749 71.2838 62.5 71.2857Z" fill="url(#paint0_linear_534_282)"/>
<path d="M41.5 83.4594C41 81 41 62.5 41 57C41 52.5 40.9951 48.8493 41 43.75H80.25H86.5V12.5C86.4983 10.8429 85.8393 9.25415 84.6676 8.08241C83.4959 6.91067 81.9071 6.25165 80.25 6.25H17.75C16.0929 6.25165 14.5042 6.91067 13.3324 8.08241C12.1607 9.25415 11.5017 10.8429 11.5 12.5V53.125C11.493 59.3573 13.1835 65.4739 16.3899 70.8181C19.5964 76.1624 24.1977 80.5325 29.7 83.4594L42.75 90.4187L41.5 83.4594Z" fill="url(#paint1_linear_534_282)"/>
<path d="M30.9929 50.639C27.5699 62.1921 30.7721 79.007 42.1373 89.7966C33.0766 87.2658 25.4398 82.2563 20.0469 76.3276C14.5759 70.3129 11.4209 63.36 11.4209 57.0967C11.4209 54.8118 11.3294 52.6376 11.2441 50.6122C11.2118 49.8453 11.1804 49.0998 11.1553 48.3776C11.0635 45.7449 11.0542 43.4246 11.3804 41.4996C11.7063 39.5758 12.3651 38.0595 13.5993 37.0221C14.8191 35.9967 16.6165 35.4261 19.2534 35.4125C19.3287 37.4091 19.3948 39.2201 19.4546 40.8583C19.5923 44.6326 19.6966 47.49 19.8028 49.5876C19.8793 51.0988 19.9568 52.2182 20.0489 53.0032C20.0949 53.3956 20.1449 53.7068 20.2007 53.9428C20.2557 54.1748 20.3193 54.3476 20.4004 54.4511C20.4422 54.5046 20.4949 54.5474 20.5609 54.5634C20.6284 54.5798 20.6931 54.564 20.7499 54.5325C20.8563 54.4734 20.9583 54.346 21.0595 54.1839C21.2659 53.8531 21.511 53.3056 21.8063 52.6098C21.9014 52.3856 22.002 52.1453 22.1086 51.8909C22.6661 50.5596 23.3858 48.8409 24.3319 47.0103C26.5873 42.6466 30.1157 37.6744 35.754 35.8348C40.8934 34.1579 47.8169 35.0747 57.1771 41.4949C50.776 37.7688 45.3583 37.1156 41.0626 38.602C36.1376 40.3061 32.7196 44.8113 30.9929 50.639Z" fill="white" stroke="#00ADB5" stroke-width="0.2"/>
<path d="M29 16L30.1226 19.8004H33.7553L30.8164 22.1492L31.9389 25.9496L29 23.6008L26.0611 25.9496L27.1836 22.1492L24.2447 19.8004H27.8774L29 16Z" fill="white"/>
<path d="M39.5 16L40.5103 19.8004H43.7798L41.1347 22.1492L42.145 25.9496L39.5 23.6008L36.855 25.9496L37.8653 22.1492L35.2202 19.8004H38.4897L39.5 16Z" fill="white"/>
<path d="M50 16L51.1226 19.8004H54.7553L51.8164 22.1492L52.9389 25.9496L50 23.6008L47.0611 25.9496L48.1836 22.1492L45.2447 19.8004H48.8774L50 16Z" fill="white"/>
<path d="M60.5 16L61.5103 19.8004H64.7798L62.1347 22.1492L63.145 25.9496L60.5 23.6008L57.855 25.9496L58.8653 22.1492L56.2202 19.8004H59.4897L60.5 16Z" fill="white"/>
<path d="M71 16L72.1226 19.8004H75.7553L72.8164 22.1492L73.9389 25.9496L71 23.6008L68.0611 25.9496L69.1836 22.1492L66.2447 19.8004H69.8774L71 16Z" fill="white"/>
<defs>
<linearGradient id="paint0_linear_534_282" x1="56.1829" y1="59.0457" x2="72.9388" y2="77.1999" gradientUnits="userSpaceOnUse">
<stop stop-color="#00383A"/>
<stop offset="1" stop-color="#00ADB5"/>
</linearGradient>
<linearGradient id="paint1_linear_534_282" x1="12" y1="14.5" x2="50" y2="90.4187" gradientUnits="userSpaceOnUse">
<stop stop-color="#00ADB5"/>
<stop offset="0.834242" stop-color="#033638"/>
</linearGradient>
</defs>
</svg>
